# Blender v3.0.0 OBJ File: 'cube.blend'
# www.blender.org
mtllib cube2.mtl
o Cube
v 0.921213 0.870000 -0.978787
v 0.870000 0.870000 -1.000000
v 0.870000 0.921213 -0.978787
v 0.924495 0.924495 -0.951010
v 0.870000 0.978787 -0.921213
v 0.870000 1.000000 -0.870000
v 0.921213 0.978787 -0.870000
v 0.924495 0.951010 -0.924495
v 0.978787 0.870000 -0.921213
v 0.951010 0.924495 -0.924495
v 0.978787 0.921213 -0.870000
v 1.000000 0.870000 -0.870000
v 0.921213 -0.978787 -0.870000
v 0.870000 -1.000000 -0.870000
v 0.870000 -0.978787 -0.921213
v 0.924495 -0.951010 -0.924495
v 0.870000 -0.921213 -0.978787
v 0.870000 -0.870000 -1.000000
v 0.921213 -0.870000 -0.978787
v 0.924495 -0.924495 -0.951010
v 0.978787 -0.921213 -0.870000
v 0.951010 -0.924495 -0.924495
v 0.978787 -0.870000 -0.921213
v 1.000000 -0.870000 -0.870000
v 0.978787 0.870000 0.921213
v 1.000000 0.870000 0.870000
v 0.978787 0.921213 0.870000
v 0.951010 0.924495 0.924495
v 0.921213 0.978787 0.870000
v 0.870000 1.000000 0.870000
v 0.870000 0.978787 0.921213
v 0.924495 0.951010 0.924495
v 0.921213 0.870000 0.978787
v 0.924495 0.924495 0.951010
v 0.870000 0.921213 0.978787
v 0.870000 0.870000 1.000000
v 0.978787 -0.921213 0.870000
v 1.000000 -0.870000 0.870000
v 0.978787 -0.870000 0.921213
v 0.951010 -0.924495 0.924495
v 0.921213 -0.870000 0.978787
v 0.870000 -0.870000 1.000000
v 0.870000 -0.921213 0.978787
v 0.924495 -0.924495 0.951010
v 0.921213 -0.978787 0.870000
v 0.924495 -0.951010 0.924495
v 0.870000 -0.978787 0.921213
v 0.870000 -1.000000 0.870000
v -0.870000 0.921213 -0.978787
v -0.870000 0.870000 -1.000000
v -0.921213 0.870000 -0.978787
v -0.924495 0.924495 -0.951010
v -0.978787 0.870000 -0.921213
v -1.000000 0.870000 -0.870000
v -0.978787 0.921213 -0.870000
v -0.951010 0.924495 -0.924495
v -0.870000 0.978787 -0.921213
v -0.924495 0.951010 -0.924495
v -0.921213 0.978787 -0.870000
v -0.870000 1.000000 -0.870000
v -0.978787 -0.921213 -0.870000
v -1.000000 -0.870000 -0.870000
v -0.978787 -0.870000 -0.921213
v -0.951010 -0.924495 -0.924495
v -0.921213 -0.870000 -0.978787
v -0.870000 -0.870000 -1.000000
v -0.870000 -0.921213 -0.978787
v -0.924495 -0.924495 -0.951010
v -0.921213 -0.978787 -0.870000
v -0.924495 -0.951010 -0.924495
v -0.870000 -0.978787 -0.921213
v -0.870000 -1.000000 -0.870000
v -0.978787 0.921213 0.870000
v -1.000000 0.870000 0.870000
v -0.978787 0.870000 0.921213
v -0.951010 0.924495 0.924495
v -0.921213 0.870000 0.978787
v -0.870000 0.870000 1.000000
v -0.870000 0.921213 0.978787
v -0.924495 0.924495 0.951010
v -0.921213 0.978787 0.870000
v -0.924495 0.951010 0.924495
v -0.870000 0.978787 0.921213
v -0.870000 1.000000 0.870000
v -0.921213 -0.978787 0.870000
v -0.870000 -1.000000 0.870000
v -0.870000 -0.978787 0.921213
v -0.924495 -0.951010 0.924495
v -0.870000 -0.921213 0.978787
v -0.870000 -0.870000 1.000000
v -0.921213 -0.870000 0.978787
v -0.924495 -0.924495 0.951010
v -0.978787 -0.921213 0.870000
v -0.951010 -0.924495 0.924495
v -0.978787 -0.870000 0.921213
v -1.000000 -0.870000 0.870000
vt 0.608750 0.757197
vt 0.391250 0.757197
vt 0.391250 0.742803
vt 0.608750 0.742803
vt 0.134848 0.516250
vt 0.134848 0.733750
vt 0.127652 0.733750
vt 0.127652 0.516250
vt 0.381376 0.756124
vt 0.378062 0.759438
vt 0.378062 0.759438
vt 0.391250 0.516250
vt 0.608750 0.516250
vt 0.608750 0.733750
vt 0.391250 0.733750
vt 0.367803 0.733750
vt 0.367803 0.516250
vt 0.382197 0.516250
vt 0.382197 0.733750
vt 0.391250 0.266250
vt 0.608750 0.266250
vt 0.608750 0.483750
vt 0.391250 0.483750
vt 0.358750 0.509848
vt 0.141250 0.509848
vt 0.141250 0.502652
vt 0.358750 0.502652
vt 0.622348 0.766250
vt 0.622348 0.983750
vt 0.615152 0.983750
vt 0.615152 0.766250
vt 0.141250 0.740152
vt 0.358750 0.740152
vt 0.358750 0.747348
vt 0.141250 0.747348
vt 0.608750 0.257197
vt 0.391250 0.257197
vt 0.391250 0.242803
vt 0.608750 0.242803
vt 0.615562 0.009438
vt 0.615562 0.006124
vt 0.618876 0.009438
vt 0.391250 0.002652
vt 0.608750 0.002652
vt 0.608750 0.009848
vt 0.391250 0.009848
vt 0.384438 0.240562
vt 0.384438 0.243876
vt 0.381124 0.240562
vt 0.141250 0.516250
vt 0.358750 0.516250
vt 0.358750 0.733750
vt 0.141250 0.733750
vt 0.615562 0.490562
vt 0.618876 0.490562
vt 0.615562 0.493876
vt 0.134438 0.740562
vt 0.134438 0.743876
vt 0.131124 0.740562
vt 0.615562 0.740562
vt 0.618876 0.740562
vt 0.615562 0.743876
vt 0.622348 0.016250
vt 0.622348 0.233750
vt 0.615152 0.233750
vt 0.615152 0.016250
vt 0.391250 0.766250
vt 0.608750 0.766250
vt 0.608750 0.983750
vt 0.391250 0.983750
vt 0.641250 0.516250
vt 0.858750 0.516250
vt 0.858750 0.733750
vt 0.641250 0.733750
vt 0.615562 0.246938
vt 0.615562 0.246938
vt 0.618876 0.243624
vt 0.391250 0.016250
vt 0.608750 0.016250
vt 0.608750 0.233750
vt 0.391250 0.233750
vt 0.632197 0.516250
vt 0.632197 0.733750
vt 0.617803 0.733750
vt 0.617803 0.516250
vt 0.365562 0.509438
vt 0.365562 0.506124
vt 0.368876 0.509438
vt 0.622348 0.266250
vt 0.622348 0.483750
vt 0.615152 0.483750
vt 0.615152 0.266250
vt 0.608750 0.490152
vt 0.608750 0.487500
vt 0.612500 0.483750
vt 0.612500 0.487500
vt 0.625000 0.483750
vt 0.625000 0.487500
vt 0.620407 0.487500
vt 0.608750 0.507197
vt 0.612500 0.503314
vt 0.612500 0.512500
vt 0.608750 0.512500
vt 0.365152 0.516250
vt 0.362500 0.516250
vt 0.358750 0.512500
vt 0.362500 0.512500
vt 0.358750 0.500000
vt 0.362500 0.500000
vt 0.362500 0.504593
vt 0.378314 0.512500
vt 0.387500 0.512500
vt 0.387500 0.516250
vt 0.608750 0.737500
vt 0.612500 0.737500
vt 0.612500 0.746686
vt 0.625549 0.759848
vt 0.625000 0.766250
vt 0.625000 0.766250
vt 0.620407 0.762500
vt 0.608750 0.759848
vt 0.612500 0.762500
vt 0.612500 0.766250
vt 0.612500 0.766250
vt 0.387500 0.733750
vt 0.387500 0.737500
vt 0.378314 0.737500
vt 0.365152 0.750549
vt 0.358750 0.750000
vt 0.358750 0.750000
vt 0.362500 0.745407
vt 0.365152 0.733750
vt 0.362500 0.737500
vt 0.358750 0.737500
vt 0.358750 0.737500
vt 0.615152 0.263598
vt 0.608750 0.262500
vt 0.608750 0.262500
vt 0.612500 0.253314
vt 0.608750 0.240152
vt 0.608750 0.237500
vt 0.612500 0.233750
vt 0.612500 0.237500
vt 0.625549 0.240152
vt 0.620407 0.237500
vt 0.625000 0.233750
vt 0.625000 0.233750
vt 0.125000 0.516250
vt 0.125000 0.512500
vt 0.129593 0.512500
vt 0.134848 0.499451
vt 0.141250 0.500000
vt 0.141250 0.500000
vt 0.137500 0.504593
vt 0.137500 0.512500
vt 0.141250 0.512500
vt 0.137500 0.516250
vt 0.608750 0.000000
vt 0.612500 0.000000
vt 0.612500 0.004593
vt 0.623598 0.015000
vt 0.620407 0.012500
vt 0.622348 0.009848
vt 0.625000 0.012500
vt 0.140000 0.748598
vt 0.137500 0.750000
vt 0.134848 0.747348
vt 0.132907 0.745407
vt 0.126402 0.735000
vt 0.129593 0.737500
vt 0.127652 0.740152
vt 0.125000 0.737500
vt 0.608750 0.492803
vt 0.612500 0.496686
vt 0.621686 0.512500
vt 0.628314 0.512500
vt 0.371686 0.512500
vt 0.365152 0.502652
vt 0.372348 0.509848
vt 0.612500 0.753314
vt 0.628314 0.737500
vt 0.621686 0.737500
vt 0.617093 0.762500
vt 0.371686 0.737500
vt 0.387500 0.753314
vt 0.387500 0.746686
vt 0.362500 0.742093
vt 0.617093 0.262500
vt 0.620407 0.262500
vt 0.612500 0.246686
vt 0.617093 0.237500
vt 0.132907 0.512500
vt 0.387500 0.253314
vt 0.387500 0.246686
vt 0.137500 0.507907
vt 0.615152 0.002652
vt 0.125000 0.733750
vt 0.391250 0.507197
vt 0.391250 0.492803
vt 0.391250 0.000000
vt 0.625000 0.983750
vt 0.141250 0.750000
vt 0.625000 0.016250
vt 0.625000 0.266250
vn 0.7071 0.0000 0.7071
vn -0.7071 -0.7071 0.0000
vn 0.5774 -0.5774 0.5774
vn 1.0000 0.0000 0.0000
vn 0.7071 -0.7071 0.0000
vn 0.0000 0.0000 -1.0000
vn 0.0000 -0.7071 -0.7071
vn 0.0000 0.7071 0.7071
vn 0.0000 -0.7071 0.7071
vn -0.7071 0.0000 -0.7071
vn -0.5774 0.5774 0.5774
vn -0.7071 0.0000 0.7071
vn -0.5774 -0.5774 -0.5774
vn 0.0000 -1.0000 0.0000
vn 0.5774 0.5774 -0.5774
vn -0.5774 -0.5774 0.5774
vn 0.5774 0.5774 0.5774
vn -0.7071 0.7071 0.0000
vn 0.0000 0.0000 1.0000
vn 0.0000 1.0000 0.0000
vn -0.5774 0.5774 -0.5774
vn -1.0000 0.0000 0.0000
vn 0.7071 0.7071 0.0000
vn 0.5774 -0.5774 -0.5774
vn 0.0000 0.7071 -0.7071
vn 0.3793 0.3793 -0.8439
vn 0.3793 0.8439 -0.3793
vn 0.8439 0.3793 -0.3793
vn 0.3793 -0.8439 -0.3793
vn 0.3793 -0.3793 -0.8439
vn 0.8439 -0.3793 -0.3793
vn 0.8439 0.3793 0.3793
vn 0.3793 0.8439 0.3793
vn 0.3793 0.3793 0.8439
vn 0.8439 -0.3793 0.3793
vn 0.3793 -0.3793 0.8439
vn 0.3793 -0.8439 0.3793
vn -0.3793 0.3793 -0.8439
vn -0.8439 0.3793 -0.3793
vn -0.3793 0.8439 -0.3793
vn -0.8439 -0.3793 -0.3793
vn -0.3793 -0.3793 -0.8439
vn -0.3793 -0.8439 -0.3793
vn -0.8439 0.3793 0.3793
vn -0.3793 0.3793 0.8439
vn -0.3793 0.8439 0.3793
vn -0.3793 -0.8439 0.3793
vn -0.3793 -0.3793 0.8439
vn -0.8439 -0.3793 0.3793
vn 0.6739 0.3029 -0.6739
vn 0.3029 0.6739 -0.6739
vn 0.6739 0.6739 -0.3029
vn 0.6739 -0.6739 -0.3029
vn 0.3029 -0.6739 -0.6739
vn 0.6739 -0.3029 -0.6739
vn 0.6739 0.3029 0.6739
vn 0.6739 0.6739 0.3029
vn 0.3029 0.6739 0.6739
vn 0.6739 -0.6739 0.3029
vn 0.6739 -0.3029 0.6739
vn 0.3029 -0.6739 0.6739
vn -0.3029 0.6739 -0.6739
vn -0.6739 0.3029 -0.6739
vn -0.6739 0.6739 -0.3029
vn -0.6739 -0.6739 -0.3029
vn -0.6739 -0.3029 -0.6739
vn -0.3029 -0.6739 -0.6739
vn -0.6739 0.6739 0.3029
vn -0.6739 0.3029 0.6739
vn -0.3029 0.6739 0.6739
vn -0.6739 -0.6739 0.3029
vn -0.3029 -0.6739 0.6739
vn -0.6739 -0.3029 0.6739
vn -0.3827 -0.9239 0.0000
vn -0.9239 -0.3827 0.0000
vn 0.0000 -0.9239 -0.3827
vn 0.0000 -0.3827 -0.9239
vn 0.9239 0.0000 -0.3827
vn 0.3827 0.0000 -0.9239
vn -0.3827 0.0000 0.9239
vn -0.9239 0.0000 0.3827
vn 0.3827 0.0000 0.9239
vn 0.9239 0.0000 0.3827
vn -0.3827 0.0000 -0.9239
vn -0.9239 0.0000 -0.3827
vn 0.0000 0.9239 0.3827
vn 0.0000 0.3827 0.9239
vn 0.3827 0.9239 0.0000
vn 0.9239 0.3827 0.0000
vn 0.0000 -0.9239 0.3827
vn 0.0000 -0.3827 0.9239
vn -0.3827 0.9239 0.0000
vn -0.9239 0.3827 0.0000
vn 0.0000 0.9239 -0.3827
vn 0.0000 0.3827 -0.9239
vn 0.3827 -0.9239 0.0000
vn 0.9239 -0.3827 0.0000
vn 0.7071 0.0000 -0.7071
usemtl Material
s off
f 33/1/1 41/2/1 39/3/1 25/4/1
f 69/5/2 85/6/2 93/7/2 61/8/2
f 40/9/3 44/10/3 46/11/3
f 24/12/4 12/13/4 26/14/4 38/15/4
f 45/16/5 13/17/5 21/18/5 37/19/5
f 66/20/6 50/21/6 2/22/6 18/23/6
f 15/24/7 71/25/7 67/26/7 17/27/7
f 31/28/8 83/29/8 79/30/8 35/31/8
f 87/32/9 47/33/9 43/34/9 89/35/9
f 51/36/10 65/37/10 63/38/10 53/39/10
f 76/40/11 80/41/11 82/42/11
f 91/43/12 77/44/12 75/45/12 95/46/12
f 64/47/13 68/48/13 70/49/13
f 72/50/14 14/51/14 48/52/14 86/53/14
f 4/54/15 8/55/15 10/56/15
f 88/57/16 92/58/16 94/59/16
f 28/60/17 32/61/17 34/62/17
f 81/63/18 59/64/18 55/65/18 73/66/18
f 42/67/19 36/68/19 78/69/19 90/70/19
f 6/71/20 60/72/20 84/73/20 30/74/20
f 52/75/21 56/76/21 58/77/21
f 96/78/22 74/79/22 54/80/22 62/81/22
f 7/82/23 29/83/23 27/84/23 11/85/23
f 16/86/24 20/87/24 22/88/24
f 57/89/25 5/90/25 3/91/25 49/92/25
f 1/93/26 2/94/26 3/95/26 4/96/26
f 5/90/27 6/97/27 7/98/27 8/99/27
f 9/100/28 10/101/28 11/102/28 12/103/28
f 13/104/29 14/105/29 15/106/29 16/107/29
f 17/27/30 18/108/30 19/109/30 20/110/30
f 21/18/31 22/111/31 23/112/31 24/113/31
f 25/4/32 26/114/32 27/115/32 28/116/32
f 29/117/33 30/118/33 31/119/33 32/120/33
f 33/121/34 34/122/34 35/123/34 36/124/34
f 37/19/35 38/125/35 39/126/35 40/127/35
f 41/128/36 42/129/36 43/130/36 44/131/36
f 45/132/37 46/133/37 47/134/37 48/135/37
f 49/136/38 50/137/38 51/138/38 52/139/38
f 53/140/39 54/141/39 55/142/39 56/143/39
f 57/144/40 58/145/40 59/146/40 60/147/40
f 61/8/41 62/148/41 63/149/41 64/150/41
f 65/151/42 66/152/42 67/153/42 68/154/42
f 69/5/43 70/155/43 71/156/43 72/157/43
f 73/66/44 74/79/44 75/45/44 76/40/44
f 77/44/45 78/158/45 79/159/45 80/160/45
f 81/161/46 82/162/46 83/163/46 84/164/46
f 85/6/47 86/53/47 87/32/47 88/57/47
f 89/165/48 90/166/48 91/167/48 92/168/48
f 93/169/49 94/170/49 95/171/49 96/172/49
f 9/100/50 1/173/50 4/174/50 10/101/50
f 3/91/51 5/90/51 8/55/51 4/54/51
f 7/82/52 11/85/52 10/175/52 8/176/52
f 21/18/53 13/17/53 16/177/53 22/111/53
f 15/24/54 17/27/54 20/87/54 16/86/54
f 19/178/55 23/179/55 22/88/55 20/87/55
f 33/1/56 25/4/56 28/116/56 34/180/56
f 27/84/57 29/83/57 32/181/57 28/182/57
f 31/28/58 35/31/58 34/183/58 32/120/58
f 45/16/59 37/19/59 40/127/59 46/184/59
f 39/3/60 41/2/60 44/185/60 40/186/60
f 43/34/61 47/33/61 46/187/61 44/131/61
f 57/89/62 49/92/62 52/188/62 58/189/62
f 51/36/63 53/39/63 56/190/63 52/139/63
f 55/65/64 59/64/64 58/145/64 56/191/64
f 69/5/65 61/8/65 64/150/65 70/192/65
f 63/38/66 65/37/66 68/193/66 64/194/66
f 67/26/67 71/25/67 70/195/67 68/154/67
f 81/63/68 73/66/68 76/40/68 82/42/68
f 75/45/69 77/44/69 80/41/69 76/40/69
f 79/196/70 83/163/70 82/42/70 80/41/70
f 93/7/71 85/6/71 88/57/71 94/59/71
f 87/32/72 89/35/72 92/58/72 88/57/72
f 91/167/73 95/171/73 94/59/73 92/58/73
f 72/50/74 86/53/74 85/6/74 69/5/74
f 96/197/75 62/148/75 61/8/75 93/7/75
f 14/51/76 72/50/76 71/25/76 15/24/76
f 66/152/77 18/108/77 17/27/77 67/26/77
f 12/13/78 24/12/78 23/198/78 9/100/78
f 18/23/79 2/22/79 1/173/79 19/199/79
f 90/200/80 78/158/80 77/44/80 91/43/80
f 74/79/81 96/78/81 95/46/81 75/45/81
f 36/68/82 42/67/82 41/2/82 33/1/82
f 38/15/83 26/14/83 25/4/83 39/3/83
f 50/21/84 66/20/84 65/37/84 51/36/84
f 62/81/85 54/80/85 53/39/85 63/38/85
f 30/118/86 84/201/86 83/29/86 31/28/86
f 78/69/87 36/68/87 35/31/87 79/30/87
f 6/71/88 30/74/88 29/83/88 7/82/88
f 26/14/89 12/13/89 11/85/89 27/84/89
f 86/53/90 48/52/90 47/33/90 87/32/90
f 42/129/91 90/202/91 89/35/91 43/34/91
f 84/203/92 60/147/92 59/64/92 81/63/92
f 54/80/93 74/79/93 73/66/93 55/65/93
f 60/204/94 6/97/94 5/90/94 57/89/94
f 2/22/95 50/21/95 49/92/95 3/91/95
f 48/52/96 14/51/96 13/17/96 45/16/96
f 24/12/97 38/15/97 37/19/97 21/18/97
f 9/100/98 23/198/98 19/199/98 1/173/98
